<svg width="50" height="50" viewBox="0 0 50 50" fill="none" xmlns="http://www.w3.org/2000/svg">
<path d="M40.9692 35.0224C40.3923 36.3672 39.6796 37.6495 38.8421 38.8495C37.7234 40.4474 36.8046 41.5516 36.1005 42.1661C35.0067 43.1703 33.8317 43.687 32.5755 43.7161C31.6755 43.7161 30.588 43.4599 29.3213 42.9391C28.0505 42.4203 26.8838 42.1661 25.815 42.1661C24.6963 42.1661 23.4963 42.4203 22.2109 42.9391C20.9275 43.4599 19.89 43.7328 19.0963 43.7578C17.8942 43.8099 16.6921 43.2807 15.4942 42.1661C14.7296 41.4995 13.7734 40.3536 12.6255 38.7328C11.3963 37.0057 10.3859 34.9953 9.59421 32.7099C8.74629 30.237 8.32129 27.8453 8.32129 25.5286C8.32129 22.8766 8.89421 20.587 10.0421 18.6703C10.9103 17.165 12.1516 15.9087 13.6463 15.0224C15.1202 14.1384 16.8027 13.6624 18.5213 13.6432C19.4796 13.6432 20.7359 13.9391 22.2921 14.5224C23.8484 15.1057 24.8484 15.4016 25.2838 15.4016C25.613 15.4016 26.7192 15.0536 28.6025 14.3641C30.3796 13.7245 31.8796 13.4599 33.1088 13.5641C36.4421 13.8328 38.9442 15.1453 40.6088 17.512C37.6296 19.3182 36.1567 21.8453 36.1859 25.0891C36.2109 27.6161 37.1296 29.7182 38.9296 31.387C39.7254 32.1485 40.6539 32.7579 41.6692 33.1849C41.4484 33.8245 41.215 34.4349 40.9692 35.0224V35.0224ZM33.3296 4.95781C33.3296 6.93698 32.6046 8.78698 31.165 10.4974C29.4234 12.5307 27.3192 13.7078 25.038 13.5224C25.0081 13.2735 24.9935 13.0231 24.9942 12.7724C24.9942 10.8703 25.8192 8.83698 27.2921 7.1724C28.0255 6.33073 28.9588 5.62865 30.09 5.07031C31.2192 4.52031 32.2859 4.21615 33.29 4.16406C33.3171 4.43073 33.3296 4.69531 33.3296 4.95781V4.95781Z" fill="black"/>
</svg>
