<svg width="24" height="24" viewBox="0 0 24 24" fill="none" xmlns="http://www.w3.org/2000/svg">
<path d="M5.00024 11.8999C5.00024 12.4999 5.40022 12.8999 6.00022 12.8999H15.9002L12.7002 16.0999C12.3002 16.4999 12.3002 17.0999 12.7002 17.4999C12.9002 17.6999 13.1002 17.7999 13.4002 17.7999C13.7002 17.7999 13.9002 17.6999 14.1002 17.4999L18.9002 12.5999C19.3002 12.1999 19.3002 11.5999 18.9002 11.1999L14.2002 6.29988C13.8002 5.89988 13.1002 5.89988 12.8002 6.29988C12.4002 6.69988 12.4002 7.29988 12.8002 7.69988L15.9002 10.8999H7.10022C7.10022 10.8999 6.50024 10.8998 6.00024 10.8998C5.44793 10.8998 5.00024 11.2999 5.00024 11.8999Z" fill="#1B2934"/>
</svg>
