<svg width="35" height="35" viewBox="0 0 35 35" fill="none" xmlns="http://www.w3.org/2000/svg">
<path d="M13.6418 30.6224C14.6701 31.53 16.0209 32.0807 17.5003 32.0807C18.9797 32.0807 20.3305 31.53 21.3588 30.6224M26.2503 11.6641C26.2503 9.34342 25.3284 7.11782 23.6875 5.47688C22.0465 3.83593 19.8209 2.91406 17.5003 2.91406C15.1796 2.91406 12.954 3.83593 11.3131 5.47688C9.67215 7.11782 8.75028 9.34342 8.75028 11.6641C8.75028 16.1706 7.61347 19.2561 6.34354 21.297C5.27234 23.0185 4.73674 23.8792 4.75638 24.1193C4.77813 24.3852 4.83445 24.4866 5.0487 24.6455C5.2422 24.7891 6.11448 24.7891 7.85903 24.7891H27.1415C28.8861 24.7891 29.7584 24.7891 29.9519 24.6455C30.1661 24.4866 30.2224 24.3852 30.2442 24.1193C30.2638 23.8792 29.7282 23.0185 28.657 21.297C27.3871 19.2561 26.2503 16.1706 26.2503 11.6641Z" stroke="black" stroke-width="3" stroke-linecap="round" stroke-linejoin="round"/>
</svg>
