<svg width="40" height="40" viewBox="0 0 40 40" fill="none" xmlns="http://www.w3.org/2000/svg">
<path d="M18.333 18.3333H10.333C8.46617 18.3333 7.53275 18.3333 6.81971 18.6966C6.1925 19.0162 5.68256 19.5262 5.36299 20.1534C4.99967 20.8664 4.99967 21.7998 4.99967 23.6667V35M34.9997 35V10.3333C34.9997 8.46649 34.9997 7.53307 34.6364 6.82003C34.3168 6.19282 33.8069 5.68289 33.1796 5.36331C32.4666 5 31.5332 5 29.6663 5H23.6663C21.7995 5 20.8661 5 20.153 5.36331C19.5258 5.68289 19.0159 6.19282 18.6963 6.82003C18.333 7.53307 18.333 8.46649 18.333 10.3333V35M36.6663 35H3.33301M24.1663 11.6667H29.1663M24.1663 18.3333H29.1663M24.1663 25H29.1663" stroke="black" stroke-width="3" stroke-linecap="round" stroke-linejoin="round"/>
</svg>
