<svg width="20" height="20" viewBox="0 0 20 20" fill="none" xmlns="http://www.w3.org/2000/svg">
<path d="M9.29394 7.17263C9.68446 7.56316 10.3176 7.56316 10.7082 7.17263L16.7185 1.1622C17.109 0.771669 17.7422 0.771667 18.1327 1.1622L18.8398 1.86929C19.2303 2.25981 19.2303 2.89297 18.8398 3.2835L12.8294 9.29394C12.4389 9.68447 12.4389 10.3176 12.8294 10.7081L18.8398 16.7185C19.2303 17.109 19.2303 17.7422 18.8398 18.1327L18.1327 18.8398C17.7422 19.2303 17.109 19.2303 16.7185 18.8398L10.7081 12.8294C10.3176 12.4389 9.68447 12.4389 9.29394 12.8294L3.2835 18.8398C2.89297 19.2303 2.25981 19.2303 1.86929 18.8398L1.16219 18.1327C0.771666 17.7422 0.771668 17.109 1.1622 16.7185L7.17263 10.7082C7.56316 10.3176 7.56316 9.68446 7.17263 9.29394L1.16219 3.2835C0.771661 2.89298 0.771661 2.25981 1.16219 1.86929L1.86929 1.16219C2.25981 0.771661 2.89298 0.771661 3.2835 1.16219L9.29394 7.17263Z" fill="white"/>
</svg>
