<svg width="50" height="50" viewBox="0 0 50 50" fill="none" xmlns="http://www.w3.org/2000/svg">
<path fill-rule="evenodd" clip-rule="evenodd" d="M25.0166 4.51562C13.4868 4.51562 4.16602 13.9051 4.16602 25.5211C4.16602 34.8064 10.1381 42.6663 18.4231 45.4481C19.4589 45.6572 19.8383 44.9961 19.8383 44.44C19.8383 43.9531 19.8042 42.2839 19.8042 40.5447C14.004 41.7969 12.7962 38.0407 12.7962 38.0407C11.8641 35.6063 10.483 34.9806 10.483 34.9806C8.58461 33.6938 10.6213 33.6938 10.6213 33.6938C12.7271 33.8329 13.832 35.85 13.832 35.85C15.6958 39.0492 18.6992 38.1452 19.9074 37.5887C20.0799 36.2324 20.6326 35.2934 21.2194 34.7719C16.5934 34.2849 11.7262 32.4766 11.7262 24.408C11.7262 22.1127 12.5542 20.2349 13.8662 18.7744C13.6592 18.2528 12.9341 16.0962 14.0736 13.2098C14.0736 13.2098 15.8341 12.6533 19.8037 15.366C21.5033 14.9062 23.256 14.6723 25.0166 14.6703C26.7771 14.6703 28.5718 14.914 30.229 15.366C34.199 12.6533 35.9596 13.2098 35.9596 13.2098C37.0991 16.0962 36.3736 18.2528 36.1666 18.7744C37.5131 20.2349 38.3069 22.1127 38.3069 24.408C38.3069 32.4766 33.4398 34.2499 28.7792 34.7719C29.5389 35.4325 30.1944 36.6843 30.1944 38.6668C30.1944 41.4836 30.1603 43.7444 30.1603 44.4396C30.1603 44.9961 30.5401 45.6572 31.5755 45.4485C39.8605 42.6658 45.8326 34.8064 45.8326 25.5211C45.8667 13.9051 36.5118 4.51562 25.0166 4.51562Z" fill="black"/>
</svg>
