<svg width="50" height="50" viewBox="0 0 50 50" fill="none" xmlns="http://www.w3.org/2000/svg">
<path d="M26.3374 16.8419C25.5791 17.2357 24.6916 17.7169 23.7499 17.7169C22.8082 17.7169 22.0624 17.2815 21.5291 16.8565C21.2582 16.6461 21.0416 16.4357 20.877 16.2815C20.5916 16.0565 20.627 15.7419 20.7436 15.7523C20.9395 15.7773 20.9686 16.0357 21.0936 16.1502C21.2603 16.3065 21.4686 16.5086 21.7228 16.7107C22.2291 17.1107 22.9041 17.5023 23.7499 17.5023C24.5957 17.5023 25.5791 17.0065 26.1811 16.669C26.5207 16.4773 26.9541 16.1357 27.3082 15.8752C27.5791 15.6773 27.5686 15.4377 27.7916 15.4627C28.0145 15.4898 27.8499 15.7273 27.5374 16.0002C27.1675 16.3215 26.7654 16.6036 26.3374 16.8419Z" fill="black"/>
<path d="M40.9354 37.0182C40.6396 36.6849 40.5 36.0682 40.35 35.412C40.2 34.7557 40.0313 34.0495 39.4938 33.5911L39.4896 33.5891C39.2948 33.4178 39.0712 33.2823 38.8292 33.1891C39.5771 30.9703 39.2854 28.7599 38.5271 26.7641C37.6021 24.312 35.9813 22.1766 34.7458 20.7161C33.3625 18.9703 32.0104 17.3141 32.0354 14.8661C32.0792 11.1307 32.4459 4.20365 25.8729 4.19531C25.5941 4.19512 25.3154 4.20693 25.0375 4.23073C17.6917 4.82031 19.6417 12.5807 19.5313 15.1786C19.3979 17.0786 19.0125 18.5766 17.7042 20.4349C16.1709 22.2599 14.0084 25.2161 12.9834 28.2911C12.5 29.7432 12.2709 31.2224 12.4813 32.6245C12.416 32.6842 12.3528 32.746 12.2917 32.8099C11.8417 33.2911 11.5084 33.8745 11.1354 34.2661C10.7896 34.6141 10.2959 34.7432 9.7521 34.9391C9.20835 35.1349 8.61252 35.4203 8.25002 36.1161L8.24794 36.1203C8.08946 36.4322 8.01208 36.779 8.02294 37.1286C8.02294 37.4495 8.07085 37.7766 8.11877 38.0891C8.21877 38.7411 8.32085 39.3578 8.18544 39.7766C7.75627 40.9516 7.7021 41.7641 8.00419 42.3536C8.30835 42.9453 8.92919 43.2057 9.63544 43.3516C11.0438 43.6453 12.9521 43.5724 14.4563 44.3703L14.5854 44.1266L14.4584 44.3724C16.0688 45.2141 17.7021 45.512 19.0042 45.2161C19.95 44.9995 20.7146 44.437 21.1104 43.5724C22.1292 43.5682 23.2459 43.137 25.0375 43.0391C26.2521 42.9411 27.7709 43.4703 29.5146 43.3724C29.5599 43.5637 29.6292 43.7485 29.7209 43.9224C30.3959 45.2745 31.6542 45.8932 32.9938 45.7891C34.3334 45.6849 35.7625 44.8932 36.9167 43.5203L36.7042 43.3432L36.9167 43.5182C38.0146 42.1849 39.8396 41.6328 41.05 40.9036C41.6542 40.5391 42.1438 40.0807 42.1833 39.4182C42.2208 38.7557 41.8313 38.012 40.9354 37.0182ZM24.7063 12.6266C24.7 12.1391 24.7813 11.7203 24.9688 11.2953C25.1563 10.8703 25.3875 10.5641 25.7146 10.3161C26.0417 10.0682 26.3646 9.95365 26.7438 9.94948H26.7625C27.1354 9.94948 27.4542 10.0599 27.7813 10.2974C28.1125 10.5391 28.3521 10.8411 28.5438 11.262C28.738 11.6766 28.8383 12.1291 28.8375 12.587C28.8417 13.0766 28.7584 13.4932 28.5729 13.9182C28.4782 14.1426 28.3519 14.3524 28.1979 14.5411L28.0438 14.4724C27.8584 14.3932 27.6959 14.3286 27.55 14.2724C27.4042 14.2161 27.2917 14.1807 27.1729 14.1391C27.2584 14.037 27.4271 13.9141 27.4875 13.762C27.5828 13.5327 27.6337 13.2874 27.6375 13.0391L27.6417 13.0057C27.6494 12.7673 27.6141 12.5295 27.5375 12.3036C27.4584 12.0682 27.3584 11.8974 27.2146 11.7557C27.0709 11.6141 26.925 11.5495 26.75 11.5453H26.7271C26.5594 11.5468 26.3982 11.6107 26.275 11.7245C26.1126 11.8651 25.988 12.0442 25.9125 12.2453C25.8171 12.4753 25.7662 12.7213 25.7625 12.9703L25.7604 13.0016C25.7561 13.1411 25.7658 13.2807 25.7896 13.4182C25.4515 13.2615 25.0973 13.142 24.7334 13.062C24.7162 12.9307 24.7064 12.7985 24.7042 12.6661V12.6266H24.7063ZM20.2396 12.7349C20.2146 12.3141 20.2584 11.9516 20.3729 11.5766C20.4875 11.2016 20.6438 10.9286 20.8688 10.7057C21.0565 10.4991 21.3172 10.3736 21.5959 10.3557H21.6584C21.9042 10.3557 22.1271 10.4391 22.3563 10.6203C22.6186 10.8363 22.8221 11.1151 22.9479 11.4307C23.1063 11.787 23.1896 12.1453 23.2125 12.5661V12.5703C23.2247 12.7389 23.2233 12.9082 23.2084 13.0766C23.1604 13.0891 23.1125 13.1057 23.0667 13.1203C22.8 13.212 22.5875 13.3141 22.3834 13.4495C22.4043 13.3017 22.4064 13.1519 22.3896 13.0036V12.9786C22.3711 12.7824 22.3233 12.59 22.2479 12.4078C22.187 12.246 22.0885 12.1011 21.9604 11.9849C21.8521 11.8932 21.7521 11.8495 21.6417 11.8516L21.6063 11.8536C21.4792 11.8641 21.3771 11.9245 21.2792 12.0453C21.1741 12.1819 21.1021 12.3409 21.0688 12.5099C21.0227 12.7099 21.0093 12.916 21.0292 13.1203L21.0313 13.1453C21.0521 13.3599 21.0959 13.5391 21.1709 13.7182C21.2422 13.902 21.3617 14.0631 21.5167 14.1849C21.3938 14.2786 21.3125 14.3474 21.2125 14.4203L20.9834 14.5891C20.7764 14.3874 20.6139 14.1447 20.5063 13.8766C20.348 13.5171 20.2576 13.1314 20.2396 12.7391V12.7349ZM20.5625 15.2932C20.9521 15.0016 21.2188 14.8057 21.4 14.6724C21.5792 14.5411 21.6521 14.4932 21.7084 14.4391H21.7104C22.0021 14.1641 22.4646 13.6599 23.1667 13.4182C23.4063 13.3349 23.6771 13.2828 23.9792 13.2807C24.5521 13.2786 25.2459 13.4661 26.0834 14.0057C26.5979 14.3391 26.9979 14.3682 27.9209 14.762H27.9229C28.3667 14.9432 28.6271 15.1828 28.7542 15.4307C28.8813 15.6807 28.8854 15.9516 28.7792 16.237C28.5646 16.8057 27.8854 17.4078 26.9313 17.7057H26.9292C26.4625 17.8557 26.0584 18.1911 25.5813 18.4641C25.0566 18.7908 24.4443 18.9486 23.8271 18.9161C23.5593 18.9043 23.2956 18.8458 23.0479 18.7432C22.8459 18.6526 22.6567 18.5356 22.4854 18.3953C22.15 18.1224 21.8542 17.7807 21.4229 17.5286H21.4188C20.725 17.1328 20.3459 16.6786 20.225 16.2828C20.1063 15.8891 20.2188 15.5516 20.5625 15.2932ZM20.8354 42.4141V42.4161C20.7375 43.7141 20.0063 44.4182 18.8813 44.6766C17.7584 44.9328 16.2354 44.6766 14.7167 43.8828H14.7146C13.0313 42.9932 11.0313 43.0807 9.74794 42.812C9.10627 42.6786 8.68752 42.4766 8.49377 42.1016C8.3021 41.7266 8.29794 41.0724 8.70627 39.9599L8.70835 39.9557L8.71044 39.9516C8.91252 39.3286 8.76252 38.6474 8.66669 38.0057C8.56877 37.3661 8.52085 36.7849 8.73752 36.3786L8.7396 36.3745C9.02085 35.8349 9.43127 35.6411 9.9396 35.4599C10.45 35.2766 11.0521 35.1328 11.5313 34.6557L11.5334 34.6536L11.5354 34.6516C11.9771 34.187 12.3084 33.6036 12.6959 33.1891C13.0229 32.8411 13.35 32.6078 13.8438 32.6057H13.8625C13.9479 32.6057 14.0396 32.612 14.1375 32.6286C14.7917 32.7266 15.3625 33.187 15.9146 33.9307L17.5021 36.8245H17.5042C17.925 37.7057 18.8188 38.6786 19.575 39.6682C20.3292 40.6578 20.9167 41.6516 20.8396 42.412L20.8354 42.4141ZM20.7042 40.3099C20.487 39.9745 20.2555 39.6485 20.0104 39.3328C19.8542 39.1272 19.6952 38.9237 19.5334 38.7224C19.8479 38.7224 20.1167 38.6724 20.3334 38.5724C20.4595 38.5196 20.5736 38.4418 20.6689 38.3437C20.7641 38.2456 20.8385 38.1292 20.8875 38.0016C21.075 37.4974 20.8875 36.787 20.2875 35.9745C19.6834 35.162 18.6667 34.2453 17.175 33.3307C16.0771 32.6474 15.4646 31.812 15.1771 30.9036C14.8896 29.9953 14.9292 29.0141 15.15 28.0432C15.575 26.1807 16.6688 24.3724 17.3646 23.2349C17.5521 23.0974 17.4313 23.4911 16.6584 24.9245C15.9667 26.2349 14.6729 29.2599 16.4438 31.6203C16.5072 29.9003 16.8872 28.2067 17.5646 26.6245C18.5479 24.4016 20.5979 20.5432 20.7604 17.4682C20.8459 17.5286 21.1354 17.7245 21.2625 17.7974C21.6417 18.0182 21.9209 18.3432 22.2875 18.637C22.6563 18.9328 23.1125 19.187 23.8063 19.2266L24 19.2328C24.7146 19.2328 25.2709 18.9995 25.7354 18.7349C26.2396 18.4474 26.6438 18.1266 27.0229 18.0036H27.025C27.8313 17.7495 28.4708 17.3057 28.8354 16.7849C29.4646 19.2557 30.9209 22.8203 31.8563 24.562C32.3542 25.4849 33.3459 27.4474 33.7729 29.812C34.0438 29.8036 34.3417 29.8432 34.6625 29.9245C35.7813 27.0224 33.7146 23.8995 32.7688 23.0286C32.3854 22.6578 32.3688 22.4911 32.5563 22.4995C33.5813 23.4078 34.9292 25.2307 35.4188 27.2911C35.6417 28.2307 35.6896 29.2182 35.4521 30.1932C35.5688 30.2411 35.6875 30.2932 35.8084 30.3516C37.6042 31.2266 38.2688 31.987 37.9479 33.0245C37.8438 33.0203 37.7396 33.0224 37.6396 33.0245H37.6104C37.8708 32.2016 37.2959 31.5932 35.7584 30.8995C34.1667 30.1995 32.8979 30.2682 32.6834 31.6891C32.6683 31.7642 32.6565 31.84 32.6479 31.9161C32.5292 31.9578 32.4104 32.0099 32.2896 32.0745C31.5438 32.4849 31.1334 33.2266 30.9063 34.137C30.6813 35.0474 30.6146 36.1453 30.5521 37.3828C30.5125 38.0036 30.2584 38.8453 29.9979 39.7349C27.3959 41.6036 23.7771 42.4078 20.7042 40.3099ZM40.7625 40.4286C39.6709 41.0891 37.7292 41.6641 36.4917 43.1641C35.4146 44.4453 34.1042 45.1474 32.95 45.2391C31.7938 45.3307 30.7979 44.8516 30.2104 43.6724V43.6703L30.2084 43.6641C29.8438 42.9703 29.9959 41.8766 30.3021 40.7224C30.6084 39.5682 31.05 38.3828 31.1104 37.4203V37.4182C31.1729 36.1849 31.2417 35.1057 31.45 34.2745C31.6583 33.4432 31.9834 32.8807 32.5604 32.5641L32.6417 32.5224C32.7063 33.5911 33.2354 34.6807 34.1709 34.9161C35.1938 35.1849 36.6688 34.3078 37.2917 33.5911C37.4167 33.587 37.5375 33.5786 37.6563 33.5766C38.2021 33.5641 38.6583 33.5953 39.1292 34.0036V34.0057H39.1313C39.4917 34.3099 39.6625 34.887 39.8104 35.5328C39.9584 36.1786 40.0771 36.8807 40.5229 37.3828H40.525C41.3792 38.3328 41.6542 38.9745 41.6313 39.3828C41.6083 39.7953 41.3125 40.0995 40.7625 40.4286Z" fill="black"/>
<path d="M24.4544 14.0871C24.4857 14.1871 24.6482 14.1704 24.7419 14.2184C24.8252 14.26 24.8898 14.3538 24.9836 14.3559C25.0711 14.3579 25.2065 14.3246 25.219 14.2371C25.2357 14.1204 25.0669 14.0475 24.9565 14.0059C24.8169 13.9517 24.6377 13.9246 24.5065 13.9975C24.4773 14.0142 24.444 14.0538 24.4544 14.0871ZM23.4961 14.0871C23.4627 14.1871 23.3002 14.1704 23.2065 14.2184C23.1252 14.26 23.0586 14.3538 22.9669 14.3559C22.8794 14.3579 22.7419 14.3246 22.7294 14.2371C22.7148 14.1204 22.8836 14.0475 22.9919 14.0059C23.1315 13.9517 23.3107 13.9246 23.444 13.9975C23.4752 14.0142 23.5065 14.0538 23.4961 14.0871Z" fill="black"/>
</svg>
