<svg width="30" height="30" viewBox="0 0 30 30" fill="none" xmlns="http://www.w3.org/2000/svg">
<path d="M21.25 12.5V10C21.25 6.54822 18.4518 3.75 15 3.75C11.5482 3.75 8.75 6.54822 8.75 10V12.5M15 18.125V20.625M11 26.25H19C21.1002 26.25 22.1503 26.25 22.9525 25.8413C23.6581 25.4817 24.2317 24.9081 24.5913 24.2025C25 23.4003 25 22.3502 25 20.25V18.5C25 16.3998 25 15.3497 24.5913 14.5475C24.2317 13.8419 23.6581 13.2683 22.9525 12.9087C22.1503 12.5 21.1002 12.5 19 12.5H11C8.8998 12.5 7.8497 12.5 7.04754 12.9087C6.34193 13.2683 5.76825 13.8419 5.40873 14.5475C5 15.3497 5 16.3998 5 18.5V20.25C5 22.3502 5 23.4003 5.40873 24.2025C5.76825 24.9081 6.34193 25.4817 7.04754 25.8413C7.8497 26.25 8.8998 26.25 11 26.25Z" stroke="black" stroke-width="2" stroke-linecap="round" stroke-linejoin="round"/>
</svg>
