<svg width="50" height="50" viewBox="0 0 50 50" fill="none" xmlns="http://www.w3.org/2000/svg">
<path d="M16.667 43.75H33.3337M25.0003 35.4167V43.75M14.167 35.4167H35.8337C39.334 35.4167 41.0841 35.4167 42.4211 34.7355C43.5971 34.1362 44.5532 33.1801 45.1524 32.0041C45.8337 30.6672 45.8337 28.917 45.8337 25.4167V16.25C45.8337 12.7497 45.8337 10.9995 45.1524 9.66256C44.5532 8.48655 43.5971 7.53042 42.4211 6.93121C41.0841 6.25 39.334 6.25 35.8337 6.25H14.167C10.6667 6.25 8.9165 6.25 7.57955 6.93121C6.40354 7.53042 5.44741 8.48655 4.8482 9.66256C4.16699 10.9995 4.16699 12.7497 4.16699 16.25V25.4167C4.16699 28.917 4.16699 30.6672 4.8482 32.0041C5.44741 33.1801 6.40354 34.1362 7.57955 34.7355C8.9165 35.4167 10.6667 35.4167 14.167 35.4167Z" stroke="black" stroke-width="3" stroke-linecap="round" stroke-linejoin="round"/>
</svg>
