<svg width="30" height="30" viewBox="0 0 30 30" fill="none" xmlns="http://www.w3.org/2000/svg">
<path d="M6.25 6.2364C6.25 5.02245 6.25 4.41547 6.50311 4.08088C6.72362 3.78939 7.06065 3.60902 7.4255 3.58724C7.84429 3.56223 8.34933 3.89892 9.3594 4.5723L22.5038 13.3353C23.3385 13.8917 23.7558 14.1699 23.9012 14.5205C24.0283 14.8271 24.0283 15.1716 23.9012 15.4782C23.7558 15.8289 23.3385 16.1071 22.5038 16.6635L9.3594 25.4264C8.34933 26.0998 7.84429 26.4365 7.4255 26.4115C7.06065 26.3897 6.72362 26.2093 6.50311 25.9179C6.25 25.5833 6.25 24.9763 6.25 23.7623V6.2364Z" stroke="black" stroke-width="2" stroke-linecap="round" stroke-linejoin="round"/>
</svg>
