<svg width="30" height="30" viewBox="0 0 30 30" fill="none" xmlns="http://www.w3.org/2000/svg">
<path d="M14.1275 27.0195C14.4043 27.181 14.5426 27.2617 14.7379 27.3036C14.8894 27.3361 15.1106 27.3361 15.2621 27.3036C15.4574 27.2617 15.5957 27.181 15.8725 27.0195C18.3075 25.5989 25 21.1365 25 15.0009V9.02294C25 8.02355 25 7.52385 24.8365 7.09432C24.6922 6.71486 24.4575 6.37628 24.1529 6.10785C23.8081 5.80399 23.3403 5.62853 22.4045 5.27762L15.7022 2.76428C15.4424 2.66683 15.3124 2.6181 15.1788 2.59879C15.0602 2.58165 14.9398 2.58165 14.8212 2.59879C14.6876 2.6181 14.5576 2.66683 14.2978 2.76428L7.59551 5.27762C6.65975 5.62853 6.19187 5.80399 5.84707 6.10785C5.54248 6.37628 5.30784 6.71486 5.16345 7.09432C5 7.52385 5 8.02355 5 9.02294V15.0009C5 21.1365 11.6925 25.5989 14.1275 27.0195Z" stroke="black" stroke-width="2" stroke-linecap="round" stroke-linejoin="round"/>
</svg>
