<svg width="50" height="50" viewBox="0 0 50 50" fill="none" xmlns="http://www.w3.org/2000/svg">
<path fill-rule="evenodd" clip-rule="evenodd" d="M45.8327 24.9974C45.8327 36.5033 36.5053 45.8307 24.9994 45.8307C13.4934 45.8307 4.16602 36.5033 4.16602 24.9974C4.16602 13.4915 13.4934 4.16406 24.9994 4.16406C36.5053 4.16406 45.8327 13.4915 45.8327 24.9974ZM25.7459 19.5442C23.7195 20.387 19.6697 22.1314 13.5963 24.7775C12.6101 25.1697 12.0935 25.5534 12.0465 25.9285C11.967 26.5625 12.761 26.8122 13.8421 27.1522C13.9892 27.1984 14.1416 27.2463 14.2978 27.2971C15.3615 27.6429 16.7924 28.0474 17.5363 28.0635C18.211 28.078 18.9641 27.7999 19.7956 27.2289C25.4701 23.3985 28.3993 21.4624 28.5832 21.4206C28.7129 21.3912 28.8927 21.3542 29.0145 21.4624C29.1363 21.5707 29.1244 21.7758 29.1115 21.8308C29.0328 22.1661 25.9162 25.0636 24.3033 26.563C23.8005 27.0305 23.4439 27.362 23.371 27.4378C23.2077 27.6074 23.0412 27.7679 22.8812 27.9221C21.893 28.8747 21.1519 29.5891 22.9222 30.7558C23.773 31.3164 24.4537 31.78 25.1329 32.2425C25.8746 32.7476 26.6144 33.2514 27.5716 33.8788C27.8154 34.0387 28.0483 34.2047 28.2752 34.3664C29.1383 34.9818 29.9138 35.5346 30.8719 35.4465C31.4286 35.3952 32.0036 34.8718 32.2956 33.3106C32.9858 29.6209 34.3424 21.6267 34.6559 18.3324C34.6834 18.0438 34.6489 17.6744 34.6211 17.5123C34.5934 17.3502 34.5354 17.1191 34.3246 16.9481C34.075 16.7456 33.6896 16.7029 33.5173 16.7059C32.7337 16.7197 31.5315 17.1377 25.7459 19.5442Z" fill="black"/>
</svg>
