<svg width="50" height="50" viewBox="0 0 50 50" fill="none" xmlns="http://www.w3.org/2000/svg">
<path d="M41.567 16.4989C41.5924 16.8662 41.5924 17.2335 41.5924 17.6042C41.5924 28.8999 32.9933 41.9271 17.2695 41.9271V41.9204C12.6246 41.9271 8.07623 40.5966 4.16602 38.088C4.84142 38.1693 5.5202 38.2099 6.20068 38.2116C10.05 38.215 13.7892 36.9234 16.8175 34.5451C13.1595 34.4757 9.95178 32.0907 8.83119 28.6087C10.1126 28.8558 11.4329 28.8051 12.6906 28.4614C8.70254 27.6557 5.83336 24.1517 5.83336 20.0824C5.83336 20.0452 5.83336 20.0096 5.83336 19.9741C7.02166 20.6359 8.35215 21.0032 9.71311 21.0439C5.95693 18.5335 4.7991 13.5366 7.06736 9.62977C11.4075 14.9703 17.8111 18.217 24.6853 18.5606C23.9964 15.5916 24.9376 12.4803 27.1584 10.3932C30.6015 7.15668 36.0165 7.32257 39.253 10.7639C41.1675 10.3864 43.0024 9.68393 44.6816 8.6886C44.0435 10.6674 42.7079 12.3483 40.9237 13.4164C42.6182 13.2167 44.2737 12.763 45.8327 12.0707C44.685 13.7905 43.2394 15.2886 41.567 16.4989Z" fill="black"/>
</svg>
