<svg width="702" height="424" viewBox="0 0 702 424" fill="none" xmlns="http://www.w3.org/2000/svg">
  <path
    d="M389 97C363.453 111.76 274.047 165.158 248.507 179.777C240.381 184.428 230.888 191.803 224.649 198.887C207.822 217.993 204.498 248.52 215.003 271.396C224.194 291.411 244.984 306.286 264.463 315.392C292.039 328.283 322.939 327.974 352.404 322.137C380.252 316.621 410.645 308.958 434.701 293.318C448.717 284.205 460.218 273.074 470.308 259.797C482.085 244.301 494.058 229.542 506.941 214.932C515.994 204.666 524.717 194.136 533.826 183.916C536.479 180.939 540.976 172.431 545.627 172.112C555.053 171.464 565.355 173.766 574.667 174.871C584.244 176.008 593.775 177.178 603.399 177.835C611.462 178.385 619.195 179.19 627 181.31"
    stroke="url(#g)" stroke-width="55" stroke-linecap="round"
  >
    <animate attributeName="stroke-width"
             dur="6s" repeatCount="indefinite"
             values="55; 70; 55"
             keyTimes="0; 0.5; 1"
             calcMode="spline"
             keySplines=".42 0 .58 1; .42 0 .58 1" />
  </path>

  <defs>
    <radialGradient id="g" cx="0" cy="0" r="1" gradientUnits="userSpaceOnUse"
      gradientTransform="translate(209 378.718) rotate(-53.3631) scale(218.166 486.645)">

      <stop offset="0" stop-color="#1648F9">
        <animate attributeName="stop-color"
                 dur="8s" repeatCount="indefinite"
                 values="#08124F; #1648F9; #08124F"
                 keyTimes="0; 0.5; 1"
                 calcMode="spline"
                 keySplines=".42 0 .58 1; .42 0 .58 1" />
      </stop>

      <stop offset="1" stop-color="#D9E1FE">
        <animate attributeName="stop-color"
                 dur="8s" repeatCount="indefinite"
                 values="#D9E1FE; #F0F3FF; #D9E1FE"
                 keyTimes="0; 0.5; 1"
                 calcMode="spline"
                 keySplines=".42 0 .58 1; .42 0 .58 1" />
      </stop>

    </radialGradient>
  </defs>
</svg>