<svg width="93" height="93" viewBox="0 0 93 93" fill="none" xmlns="http://www.w3.org/2000/svg">
<g filter="url(#filter0_i_438_15)">
<path d="M46.5002 4.21997C69.8516 4.22012 88.7795 23.1489 88.7795 46.5002C88.7794 69.8515 69.8515 88.7794 46.5002 88.7795C23.1489 88.7795 4.22012 69.8516 4.21997 46.5002C4.21997 23.1488 23.1488 4.21997 46.5002 4.21997ZM46.5002 6.9397C24.6872 6.9397 6.9397 24.6872 6.9397 46.5002C6.93985 68.3132 24.6873 86.0598 46.5002 86.0598C68.3131 86.0597 86.0597 68.3131 86.0598 46.5002C86.0598 24.6873 68.3132 6.93985 46.5002 6.9397Z" fill="#5277FB" stroke="#5277FB"/>
<path d="M29.7605 41.4199H63.24C67.067 41.4199 70.1804 44.5333 70.1804 48.3604V66.96C70.1804 70.787 67.067 73.9004 63.24 73.9004H29.7605C25.9335 73.9004 22.8201 70.787 22.8201 66.96V48.3604C22.8201 44.5333 25.9335 41.4199 29.7605 41.4199ZM29.7605 44.1396C27.4291 44.1396 25.5398 46.0289 25.5398 48.3604V66.96C25.5398 69.2914 27.4291 71.1797 29.7605 71.1797H63.24C65.5714 71.1797 67.4597 69.2914 67.4597 66.96V48.3604C67.4597 46.0289 65.5714 44.1396 63.24 44.1396H29.7605Z" fill="#5277FB" stroke="#5277FB"/>
<path d="M31.6204 48.8601C32.3708 48.8603 32.9797 49.47 32.9797 50.2205V65.1003C32.9796 65.8507 32.3707 66.4595 31.6204 66.4597C30.8699 66.4597 30.2601 65.8508 30.26 65.1003V50.2205C30.26 49.4699 30.8698 48.8601 31.6204 48.8601Z" fill="#5277FB" stroke="#5277FB"/>
<path d="M46.4998 48.8601C48.278 48.8601 49.7203 50.3016 49.7205 52.0798C49.7205 53.8582 48.2781 55.3005 46.4998 55.3005C44.7215 55.3004 43.28 53.8581 43.28 52.0798C43.2802 50.3017 44.7216 48.8603 46.4998 48.8601Z" fill="#5277FB" stroke="#5277FB"/>
<path d="M47.8596 52.5801V64.5996H45.1399V52.5801H47.8596Z" fill="#5277FB" stroke="#5277FB"/>
<path d="M46.5002 15.3799C55.4552 15.38 62.7405 22.6652 62.7405 31.6201V38.5596H52.5803V31.6201C52.5803 28.2676 49.8527 25.5402 46.5002 25.54C43.1477 25.54 40.4202 28.2675 40.4202 31.6201V38.5596H30.26V31.6201C30.26 22.6651 37.5452 15.3799 46.5002 15.3799ZM46.5002 18.0996C39.0333 18.0996 32.9797 24.1532 32.9797 31.6201V35.8398H37.7004V31.6201C37.7004 26.7608 41.6409 22.8203 46.5002 22.8203C51.3595 22.8204 55.3 26.7609 55.3 31.6201V35.8398H60.0198V31.6201C60.0198 24.1533 53.967 18.0997 46.5002 18.0996Z" fill="#5277FB" stroke="#5277FB"/>
</g>
<defs>
<filter id="filter0_i_438_15" x="0" y="0" width="93" height="97" filterUnits="userSpaceOnUse" color-interpolation-filters="sRGB">
<feFlood flood-opacity="0" result="BackgroundImageFix"/>
<feBlend mode="normal" in="SourceGraphic" in2="BackgroundImageFix" result="shape"/>
<feColorMatrix in="SourceAlpha" type="matrix" values="0 0 0 0 0 0 0 0 0 0 0 0 0 0 0 0 0 0 127 0" result="hardAlpha"/>
<feOffset dy="4"/>
<feGaussianBlur stdDeviation="2"/>
<feComposite in2="hardAlpha" operator="arithmetic" k2="-1" k3="1"/>
<feColorMatrix type="matrix" values="0 0 0 0 0 0 0 0 0 0 0 0 0 0 0 0 0 0 0.25 0"/>
<feBlend mode="normal" in2="shape" result="effect1_innerShadow_438_15"/>
</filter>
</defs>
</svg>
