<svg width="243" height="81" viewBox="0 0 243 81" fill="none" xmlns="http://www.w3.org/2000/svg">
<g filter="url(#filter0_i_438_22)">
<path d="M41.28 34.8H44.56C49.8933 34.8 54.5333 35.1733 58.48 35.92C62.48 36.6133 65.8133 38.1333 68.48 40.48C71.1467 42.7733 72.48 46.1867 72.48 50.72C72.48 58.1867 69.3867 63.4667 63.2 66.56C57.0667 69.6 49.76 71.3333 41.28 71.76V80.88H31.76V71.68C23.28 71.2 15.8667 69.4133 9.52 66.32C3.17333 63.1733 0 57.8933 0 50.48L20.4 50.4C20.4 55.2533 24.1867 58.0267 31.76 58.72V45.84C25.6267 45.8933 20.3467 45.6 15.92 44.96C11.5467 44.32 7.78667 42.7733 4.64 40.32C1.54667 37.8667 0 34.1333 0 29.12C0 16.5867 10.5867 9.92 31.76 9.12V0H41.28V9.12C49.6533 9.54667 56.9333 11.3067 63.12 14.4C69.36 17.4933 72.48 22.8267 72.48 30.4H52.4C52.4 28.0533 51.28 26.2933 49.04 25.12C46.8533 23.8933 44.2667 23.0667 41.28 22.64V34.8ZM20.32 28.88C20.32 32.1867 24.1333 34.1333 31.76 34.72V22.48C28.6667 22.8 25.9733 23.4667 23.68 24.48C21.44 25.44 20.32 26.9067 20.32 28.88ZM52.48 50.96C52.48 47.9733 48.7467 46.32 41.28 46V58.64C44.5867 58.2667 47.28 57.4667 49.36 56.24C51.44 55.0133 52.48 53.28 52.48 51.04V50.96Z" fill="#1648F9"/>
<path d="M126.28 34.8H129.56C134.893 34.8 139.533 35.1733 143.48 35.92C147.48 36.6133 150.813 38.1333 153.48 40.48C156.147 42.7733 157.48 46.1867 157.48 50.72C157.48 58.1867 154.387 63.4667 148.2 66.56C142.067 69.6 134.76 71.3333 126.28 71.76V80.88H116.76V71.68C108.28 71.2 100.867 69.4133 94.52 66.32C88.1733 63.1733 85 57.8933 85 50.48L105.4 50.4C105.4 55.2533 109.187 58.0267 116.76 58.72V45.84C110.627 45.8933 105.347 45.6 100.92 44.96C96.5467 44.32 92.7867 42.7733 89.64 40.32C86.5467 37.8667 85 34.1333 85 29.12C85 16.5867 95.5867 9.92 116.76 9.12V0H126.28V9.12C134.653 9.54667 141.933 11.3067 148.12 14.4C154.36 17.4933 157.48 22.8267 157.48 30.4H137.4C137.4 28.0533 136.28 26.2933 134.04 25.12C131.853 23.8933 129.267 23.0667 126.28 22.64V34.8ZM105.32 28.88C105.32 32.1867 109.133 34.1333 116.76 34.72V22.48C113.667 22.8 110.973 23.4667 108.68 24.48C106.44 25.44 105.32 26.9067 105.32 28.88ZM137.48 50.96C137.48 47.9733 133.747 46.32 126.28 46V58.64C129.587 58.2667 132.28 57.4667 134.36 56.24C136.44 55.0133 137.48 53.28 137.48 51.04V50.96Z" fill="#FDFDFD"/>
<path d="M211.28 34.8H214.56C219.893 34.8 224.533 35.1733 228.48 35.92C232.48 36.6133 235.813 38.1333 238.48 40.48C241.147 42.7733 242.48 46.1867 242.48 50.72C242.48 58.1867 239.387 63.4667 233.2 66.56C227.067 69.6 219.76 71.3333 211.28 71.76V80.88H201.76V71.68C193.28 71.2 185.867 69.4133 179.52 66.32C173.173 63.1733 170 57.8933 170 50.48L190.4 50.4C190.4 55.2533 194.187 58.0267 201.76 58.72V45.84C195.627 45.8933 190.347 45.6 185.92 44.96C181.547 44.32 177.787 42.7733 174.64 40.32C171.547 37.8667 170 34.1333 170 29.12C170 16.5867 180.587 9.92 201.76 9.12V0H211.28V9.12C219.653 9.54667 226.933 11.3067 233.12 14.4C239.36 17.4933 242.48 22.8267 242.48 30.4H222.4C222.4 28.0533 221.28 26.2933 219.04 25.12C216.853 23.8933 214.267 23.0667 211.28 22.64V34.8ZM190.32 28.88C190.32 32.1867 194.133 34.1333 201.76 34.72V22.48C198.667 22.8 195.973 23.4667 193.68 24.48C191.44 25.44 190.32 26.9067 190.32 28.88ZM222.48 50.96C222.48 47.9733 218.747 46.32 211.28 46V58.64C214.587 58.2667 217.28 57.4667 219.36 56.24C221.44 55.0133 222.48 53.28 222.48 51.04V50.96Z" fill="#FDFDFD"/>
</g>
<defs>
<filter id="filter0_i_438_22" x="0" y="0" width="242.48" height="80.8799" filterUnits="userSpaceOnUse" color-interpolation-filters="sRGB">
<feFlood flood-opacity="0" result="BackgroundImageFix"/>
<feBlend mode="normal" in="SourceGraphic" in2="BackgroundImageFix" result="shape"/>
<feColorMatrix in="SourceAlpha" type="matrix" values="0 0 0 0 0 0 0 0 0 0 0 0 0 0 0 0 0 0 127 0" result="hardAlpha"/>
<feOffset/>
<feGaussianBlur stdDeviation="19"/>
<feComposite in2="hardAlpha" operator="arithmetic" k2="-1" k3="1"/>
<feColorMatrix type="matrix" values="0 0 0 0 0.251127 0 0 0 0 0.421325 0 0 0 0 1 0 0 0 1 0"/>
<feBlend mode="normal" in2="shape" result="effect1_innerShadow_438_22"/>
</filter>
</defs>
</svg>
