<svg width="60" height="60" viewBox="0 0 60 60" fill="none" xmlns="http://www.w3.org/2000/svg">
<rect width="60" height="60" fill="#3A73ED"/>
<path d="M40.7903 30.4991C42.1151 30.4991 43.1881 31.5721 43.1881 32.8969V44.8861C43.1881 46.2109 42.1151 47.284 40.7903 47.284H19.2097C17.8849 47.284 16.8119 46.2109 16.8119 44.8861V32.8969C16.8119 31.5721 17.8849 30.4991 19.2097 30.4991H40.7903ZM40.7903 28.1013H19.2097C16.5649 28.1013 14.4141 30.2521 14.4141 32.8969V44.8861C14.4141 47.5309 16.5649 49.6818 19.2097 49.6818H40.7903C43.4351 49.6818 45.5859 47.5309 45.5859 44.8861V32.8969C45.5859 30.2521 43.4351 28.1013 40.7903 28.1013Z" fill="white"/>
<path d="M30 13.7142C34.635 13.7142 38.3924 17.4717 38.3924 22.1067V23.5054C38.3924 24.0572 37.9451 24.5045 37.3933 24.5045H36.9937C36.4419 24.5045 35.9946 24.0572 35.9946 23.5054V22.1067C35.9946 18.7965 33.3102 16.1121 30 16.1121C26.6898 16.1121 24.0054 18.7965 24.0054 22.1067V23.5054C24.0054 24.0572 23.5581 24.5045 23.0063 24.5045H22.6067C22.0549 24.5045 21.6076 24.0572 21.6076 23.5054V22.1067C21.6076 17.4717 25.365 13.7142 30 13.7142ZM30 11.3164C24.0498 11.3164 19.2097 16.1564 19.2097 22.1067V25.9032C19.2097 26.455 19.657 26.9023 20.2088 26.9023H25.4041C25.9559 26.9023 26.4032 26.455 26.4032 25.9032V22.1067C26.4032 20.1237 28.017 18.5099 30 18.5099C31.983 18.5099 33.5968 20.1237 33.5968 22.1067V25.9032C33.5968 26.455 34.0441 26.9023 34.5959 26.9023H39.7912C40.343 26.9023 40.7903 26.455 40.7903 25.9032V22.1067C40.7903 16.1564 35.9502 11.3164 30 11.3164Z" fill="white"/>
<path d="M20.095 35.9306L20.4995 33.5464H29.9725L29.568 35.9306H26.2897L24.8847 44.4456H21.9683L23.3733 35.9306H20.095Z" fill="white"/>
<path d="M33.9165 33.5464L34.8744 41.2312H34.9596L38.472 33.5464H41.8142L36.4071 44.4456H32.3625L30.5743 33.5464H33.9165Z" fill="white"/>
</svg>
