<svg width="98" height="65" viewBox="0 0 98 65" fill="none" xmlns="http://www.w3.org/2000/svg">
<path d="M13.294 52.012L11.1539 64.8496H8.23324L4.70831 58.1048H4.63277L3.49976 64.8496H0L2.14014 52.012H5.11116L8.58573 58.7317H8.68645L9.79428 52.012H13.294Z" fill="white"/>
<path d="M15.9808 64.8496H12.2041L18.5993 52.012H23.3832L25.4981 64.8496H21.7214L20.4625 55.5473H20.3618L15.9808 64.8496ZM16.1319 59.7847H23.2321L22.7789 62.3924H15.6787L16.1319 59.7847Z" fill="white"/>
<path d="M28.7026 52.012H33.0584L34.8461 59.2833H34.9971L39.2019 52.012H43.5577L41.4175 64.8496H37.9933L39.227 57.4278H39.1263L35.0475 64.7493H32.9829L31.3463 57.3777H31.2456L29.9867 64.8496H26.5625L28.7026 52.012Z" fill="white"/>
<path d="M42.8989 64.8496L45.039 52.012H54.3298L53.8514 54.8202H48.0604L47.7079 57.0267H53.0205L52.5421 59.8349H47.2295L46.877 62.0413H52.6428L52.1644 64.8496H42.8989Z" fill="white"/>
<path d="M53.7481 64.8496L55.8882 52.012H59.388L57.7262 62.0413H62.9381L62.4597 64.8496H53.7481Z" fill="white"/>
<path d="M63.6971 64.8496L65.8373 52.012H75.128L74.6496 54.8202H68.8587L68.5062 57.0267H73.8187L73.3404 59.8349H68.0278L67.6753 62.0413H73.4411L72.9627 64.8496H63.6971Z" fill="white"/>
<path d="M82.9558 56.0237C82.9936 55.61 82.8929 55.2862 82.6537 55.0521C82.4145 54.8139 82.0116 54.6949 81.4451 54.6949C81.0843 54.6949 80.7821 54.7366 80.5387 54.8202C80.2995 54.9038 80.1128 55.0187 79.9785 55.165C79.8484 55.3112 79.7666 55.4805 79.733 55.6727C79.6953 55.8232 79.6974 55.9611 79.7393 56.0864C79.7855 56.2076 79.8715 56.3184 79.9974 56.4186C80.1275 56.5189 80.2974 56.6088 80.5072 56.6882C80.7213 56.7676 80.9751 56.8386 81.2689 56.9013L82.276 57.127C82.9642 57.2774 83.5412 57.4759 84.007 57.7225C84.477 57.9648 84.8463 58.2532 85.1148 58.5875C85.3834 58.9218 85.5597 59.2958 85.6436 59.7095C85.7317 60.1232 85.7338 60.5746 85.6499 61.0635C85.5072 61.9076 85.1778 62.6222 84.6616 63.2073C84.1455 63.7923 83.472 64.2374 82.6411 64.5424C81.8102 64.8475 80.8493 65 79.7582 65C78.642 65 77.6936 64.8349 76.9131 64.5048C76.1367 64.1705 75.5744 63.6607 75.2261 62.9753C74.882 62.2858 74.7981 61.4062 74.9744 60.3364H78.2979C78.2475 60.7292 78.2895 61.0593 78.4238 61.3268C78.558 61.5942 78.7741 61.7969 79.0721 61.9348C79.37 62.0727 79.7414 62.1416 80.1862 62.1416C80.5639 62.1416 80.887 62.0957 81.1556 62.0037C81.4241 61.9118 81.6361 61.7843 81.7913 61.6214C81.9466 61.4584 82.041 61.2724 82.0746 61.0635C82.1082 60.8713 82.0746 60.6999 81.9739 60.5495C81.8732 60.399 81.6906 60.2632 81.4262 60.142C81.1619 60.0209 80.7989 59.9101 80.3373 59.8098L79.1036 59.534C78.0083 59.2833 77.1816 58.8696 76.6235 58.2929C76.0654 57.7162 75.8682 56.9264 76.0318 55.9234C76.1661 55.1044 76.5039 54.3898 77.0453 53.7797C77.5908 53.1654 78.2832 52.689 79.1225 52.3505C79.9659 52.0078 80.8996 51.8365 81.9235 51.8365C82.9642 51.8365 83.835 52.0099 84.5357 52.3568C85.2407 52.7036 85.7464 53.1904 86.0527 53.8173C86.3633 54.4441 86.4472 55.1796 86.3045 56.0237H82.9558Z" fill="white"/>
<path d="M94.5839 56.0237C94.6217 55.61 94.521 55.2862 94.2818 55.0521C94.0426 54.8139 93.6398 54.6949 93.0733 54.6949C92.7124 54.6949 92.4102 54.7366 92.1668 54.8202C91.9277 54.9038 91.7409 55.0187 91.6066 55.165C91.4765 55.3112 91.3947 55.4805 91.3611 55.6727C91.3234 55.8232 91.3255 55.9611 91.3674 56.0864C91.4136 56.2076 91.4996 56.3184 91.6255 56.4186C91.7556 56.5189 91.9256 56.6088 92.1354 56.6882C92.3494 56.7676 92.6033 56.8386 92.897 56.9013L93.9041 57.127C94.5923 57.2774 95.1693 57.4759 95.6351 57.7225C96.1051 57.9648 96.4744 58.2532 96.743 58.5875C97.0115 58.9218 97.1878 59.2958 97.2717 59.7095C97.3598 60.1232 97.3619 60.5746 97.278 61.0635C97.1353 61.9076 96.8059 62.6222 96.2898 63.2073C95.7736 63.7923 95.1001 64.2374 94.2692 64.5424C93.4383 64.8475 92.4774 65 91.3863 65C90.2701 65 89.3217 64.8349 88.5412 64.5048C87.7649 64.1705 87.2026 63.6607 86.8543 62.9753C86.5102 62.2858 86.4262 61.4062 86.6025 60.3364H89.926C89.8756 60.7292 89.9176 61.0593 90.0519 61.3268C90.1862 61.5942 90.4023 61.7969 90.7002 61.9348C90.9982 62.0727 91.3695 62.1416 91.8144 62.1416C92.192 62.1416 92.5151 62.0957 92.7837 62.0037C93.0523 61.9118 93.2642 61.7843 93.4195 61.6214C93.5747 61.4584 93.6691 61.2724 93.7027 61.0635C93.7363 60.8713 93.7027 60.6999 93.602 60.5495C93.5013 60.399 93.3187 60.2632 93.0544 60.142C92.79 60.0209 92.427 59.9101 91.9654 59.8098L90.7317 59.534C89.6364 59.2833 88.8098 58.8696 88.2517 58.2929C87.6935 57.7162 87.4963 56.9264 87.66 55.9234C87.7942 55.1044 88.132 54.3898 88.6734 53.7797C89.2189 53.1654 89.9113 52.689 90.7506 52.3505C91.594 52.0078 92.5277 51.8365 93.5516 51.8365C94.5923 51.8365 95.4631 52.0099 96.1639 52.3568C96.8689 52.7036 97.3745 53.1904 97.6808 53.8173C97.9914 54.4441 98.0753 55.1796 97.9326 56.0237H94.5839Z" fill="white"/>
<path d="M40.4065 44.8779L73.3344 0.448106C73.778 -0.150435 74.6771 -0.149149 75.119 0.450658L82.3691 10.2923C82.6522 10.6765 82.6555 11.1983 82.3773 11.5861L71.4738 26.7852C71.196 27.1724 71.1988 27.6933 71.4808 28.0775L83.6766 44.6931C84.2102 45.4201 83.6915 46.4432 82.7872 46.4473L41.3029 46.6362C40.3916 46.6404 39.8653 45.6081 40.4065 44.8779Z" fill="white"/>
<path d="M14.2522 44.8942L46.7006 0.46313C47.1419 -0.141073 48.0459 -0.142978 48.4898 0.459362L58.9384 14.64C59.2274 15.0321 59.2243 15.5665 58.9308 15.9554L36.1035 46.2058C35.8942 46.4831 35.5662 46.6463 35.2179 46.6463H15.1481C14.2427 46.6463 13.7196 45.6234 14.2522 44.8942Z" fill="white"/>
</svg>
